<svg width="32" height="34" viewBox="0 0 32 34" fill="none" xmlns="http://www.w3.org/2000/svg">
<path d="M28 14.3333C28 23.6666 16 31.6666 16 31.6666C16 31.6666 4 23.6666 4 14.3333C4 11.1507 5.26428 8.09841 7.51472 5.84797C9.76516 3.59753 12.8174 2.33325 16 2.33325C19.1826 2.33325 22.2348 3.59753 24.4853 5.84797C26.7357 8.09841 28 11.1507 28 14.3333Z" stroke="#475467" stroke-width="3" stroke-linecap="round" stroke-linejoin="round"/>
<path d="M16 18.3333C18.2091 18.3333 20 16.5424 20 14.3333C20 12.1241 18.2091 10.3333 16 10.3333C13.7909 10.3333 12 12.1241 12 14.3333C12 16.5424 13.7909 18.3333 16 18.3333Z" stroke="#475467" stroke-width="3" stroke-linecap="round" stroke-linejoin="round"/>
</svg>
