<svg width="24" height="24" viewBox="0 0 24 24" fill="none" xmlns="http://www.w3.org/2000/svg">
<path d="M21.2307 16.92V19.92C21.2317 20.1985 21.1791 20.4741 21.0761 20.7293C20.9731 20.9845 20.8221 21.2136 20.6326 21.4018C20.4432 21.5901 20.2195 21.7335 19.976 21.8227C19.7325 21.9119 19.4744 21.945 19.2184 21.92C16.3779 21.5856 13.6495 20.5341 11.2522 18.85C9.02192 17.3146 7.13101 15.2661 5.71378 12.85C4.15375 10.2412 3.18292 7.27097 2.87993 4.17997C2.85686 3.90344 2.8872 3.62474 2.96901 3.3616C3.05081 3.09846 3.1823 2.85666 3.3551 2.6516C3.52789 2.44653 3.73821 2.28268 3.97266 2.1705C4.20711 2.05831 4.46055 2.00024 4.71685 1.99997H7.48608C7.93406 1.9952 8.36835 2.16705 8.70802 2.48351C9.04768 2.79996 9.26954 3.23942 9.33224 3.71997C9.44912 4.68004 9.66588 5.6227 9.97839 6.52997C10.1026 6.8879 10.1295 7.27689 10.0558 7.65086C9.98222 8.02482 9.81119 8.36809 9.56301 8.63998L8.3907 9.90997C9.70475 12.4135 11.6182 14.4864 13.9292 15.91L15.1015 14.64C15.3524 14.3711 15.6693 14.1858 16.0145 14.1061C16.3597 14.0263 16.7188 14.0554 17.0492 14.19C17.8866 14.5285 18.7568 14.7634 19.643 14.89C20.0914 14.9585 20.5009 15.2032 20.7937 15.5775C21.0864 15.9518 21.2419 16.4296 21.2307 16.92Z" stroke="black" stroke-width="2" stroke-linecap="round" stroke-linejoin="round"/>
</svg>
