<svg width="27" height="27" viewBox="0 0 27 27" fill="none" xmlns="http://www.w3.org/2000/svg">
<rect x="1" y="1" width="25" height="25" rx="2.5" fill="#D1FADF"/>
<path d="M10.5 12.5L13.5 15.5L23.5 5.5M22.5 13.5V20.5C22.5 21.0304 22.2893 21.5391 21.9142 21.9142C21.5391 22.2893 21.0304 22.5 20.5 22.5H6.5C5.96957 22.5 5.46086 22.2893 5.08579 21.9142C4.71071 21.5391 4.5 21.0304 4.5 20.5V6.5C4.5 5.96957 4.71071 5.46086 5.08579 5.08579C5.46086 4.71071 5.96957 4.5 6.5 4.5H17.5" stroke="#039855" stroke-width="2" stroke-linecap="round" stroke-linejoin="round"/>
<rect x="1" y="1" width="25" height="25" rx="2.5" stroke="#D1FADF"/>
</svg>
