<svg width="24" height="24" viewBox="0 0 24 24" fill="none" xmlns="http://www.w3.org/2000/svg">
<path d="M21.2307 16.9201V19.9201C21.2317 20.1986 21.1791 20.4743 21.0761 20.7294C20.9731 20.9846 20.8221 21.2137 20.6326 21.402C20.4432 21.5902 20.2195 21.7336 19.976 21.8228C19.7325 21.912 19.4744 21.9452 19.2184 21.9201C16.3779 21.5857 13.6495 20.5342 11.2522 18.8501C9.02192 17.3148 7.13101 15.2663 5.71378 12.8501C4.15375 10.2413 3.18292 7.27109 2.87993 4.1801C2.85686 3.90356 2.8872 3.62486 2.96901 3.36172C3.05081 3.09859 3.1823 2.85679 3.3551 2.65172C3.52789 2.44665 3.73821 2.28281 3.97266 2.17062C4.20711 2.05843 4.46055 2.00036 4.71685 2.0001H7.48608C7.93406 1.99532 8.36835 2.16718 8.70802 2.48363C9.04768 2.80008 9.26954 3.23954 9.33224 3.7201C9.44912 4.68016 9.66588 5.62282 9.97839 6.5301C10.1026 6.88802 10.1295 7.27701 10.0558 7.65098C9.98222 8.02494 9.81119 8.36821 9.56301 8.6401L8.3907 9.9101C9.70475 12.4136 11.6182 14.4865 13.9292 15.9101L15.1015 14.6401C15.3524 14.3712 15.6693 14.1859 16.0145 14.1062C16.3597 14.0264 16.7188 14.0556 17.0492 14.1901C17.8866 14.5286 18.7568 14.7635 19.643 14.8901C20.0914 14.9586 20.5009 15.2033 20.7937 15.5776C21.0864 15.9519 21.2419 16.4297 21.2307 16.9201Z" stroke="black" stroke-width="2" stroke-linecap="round" stroke-linejoin="round"/>
</svg>
