<svg width="24" height="24" viewBox="0 0 24 24" fill="none" xmlns="http://www.w3.org/2000/svg">
<path d="M21.2308 16.9201V19.9201C21.2319 20.1986 21.1792 20.4743 21.0762 20.7294C20.9732 20.9846 20.8222 21.2137 20.6327 21.402C20.4433 21.5902 20.2197 21.7336 19.9761 21.8228C19.7326 21.912 19.4745 21.9452 19.2185 21.9201C16.3781 21.5857 13.6496 20.5342 11.2524 18.8501C9.02205 17.3148 7.13113 15.2663 5.7139 12.8501C4.15388 10.2413 3.18304 7.27109 2.88005 4.1801C2.85698 3.90356 2.88732 3.62486 2.96913 3.36172C3.05094 3.09859 3.18242 2.85679 3.35522 2.65172C3.52802 2.44665 3.73833 2.28281 3.97278 2.17062C4.20723 2.05843 4.46067 2.00036 4.71697 2.0001H7.4862C7.93418 1.99532 8.36847 2.16718 8.70814 2.48363C9.0478 2.80008 9.26966 3.23954 9.33236 3.7201C9.44924 4.68016 9.666 5.62282 9.97851 6.5301C10.1027 6.88802 10.1296 7.27701 10.056 7.65098C9.98234 8.02494 9.81131 8.36821 9.56313 8.6401L8.39082 9.9101C9.70487 12.4136 11.6183 14.4865 13.9293 15.9101L15.1016 14.6401C15.3526 14.3712 15.6694 14.1859 16.0146 14.1062C16.3598 14.0264 16.7189 14.0556 17.0493 14.1901C17.8868 14.5286 18.7569 14.7635 19.6431 14.8901C20.0915 14.9586 20.501 15.2033 20.7938 15.5776C21.0865 15.9519 21.2421 16.4297 21.2308 16.9201Z" stroke="black" stroke-width="2" stroke-linecap="round" stroke-linejoin="round"/>
</svg>
